<!DOCTYPE svg PUBLIC "-//W3C//DTD SVG 20010904//EN" "http://www.w3.org/TR/2001/REC-SVG-20010904/DTD/svg10.dtd">
<svg version="1.0" xmlns="http://www.w3.org/2000/svg" width="1200px" height="1200px" viewBox="0 0 12000 12000" preserveAspectRatio="xMidYMid meet">
<g id="layer101" fill="#231f20" stroke="none">
 <path d="M3427 11971 l-49 -28 169 -144 c718 -615 1299 -1036 1841 -1333 254 -140 607 -294 767 -335 95 -25 264 -167 345 -291 140 -216 229 -501 281 -895 26 -204 38 -423 42 -785 l4 -305 434 0 434 0 1 789 c1 435 5 810 8 834 9 66 68 181 135 264 202 250 628 464 1201 603 178 43 421 58 452 27 22 -22 -18 -78 -146 -210 -299 -306 -410 -500 -423 -735 -10 -189 32 -306 191 -532 271 -387 247 -508 -144 -718 -80 -43 -220 -129 -220 -136 0 -3 24 -21 54 -38 239 -143 570 -435 772 -679 432 -524 685 -1116 761 -1784 20 -173 22 -511 4 -685 -56 -560 -231 -1049 -548 -1537 l-43 -67 2 -415 3 -415 56 67 c576 689 963 1672 1108 2817 36 283 52 522 58 853 5 292 7 323 22 319 9 -3 117 -35 241 -71 519 -151 745 -216 753 -216 4 0 7 853 7 1896 l0 1896 -116 155 c-550 733 -1233 1334 -2035 1791 l-126 72 -3124 0 -3124 0 -48 -29z"/>
 <path d="M2527 11373 c-684 -530 -1290 -1243 -1719 -2023 -43 -78 -208 -406 -208 -414 0 -3 -13 -33 -29 -68 -219 -471 -403 -1091 -491 -1653 -118 -755 -102 -1586 45 -2310 68 -336 112 -502 214 -811 278 -846 731 -1624 1347 -2314 551 -618 1201 -1117 1949 -1497 202 -103 626 -283 665 -283 18 0 20 5 15 53 -5 53 -28 287 -65 677 -20 208 -42 442 -75 775 -30 306 -54 569 -52 571 1 1 72 -33 157 -75 380 -186 673 -310 1025 -433 165 -57 430 -138 453 -138 9 0 12 84 12 319 l0 319 -67 27 c-93 36 -349 169 -458 237 -369 230 -728 566 -960 901 -33 47 -62 86 -65 86 -3 1 -36 -47 -73 -107 -76 -120 -95 -147 -100 -141 -2 2 -73 94 -158 204 -581 749 -849 1095 -872 1127 -29 38 -28 32 -232 1043 -30 149 -111 549 -180 890 -69 341 -159 787 -200 990 -41 204 -104 515 -140 692 -36 177 -65 326 -65 330 1 4 16 -30 34 -77 62 -156 83 -204 144 -330 173 -354 366 -601 584 -747 203 -136 242 -228 258 -617 10 -251 21 -315 68 -381 61 -87 165 -111 348 -81 301 49 333 51 779 51 379 0 457 -3 655 -23 123 -13 228 -26 232 -28 5 -3 8 -2 8 3 0 4 -17 21 -38 38 -36 28 -416 341 -577 475 -44 37 -172 142 -285 235 -113 93 -254 210 -315 260 -282 234 -482 399 -610 505 -77 64 -201 166 -275 228 l-135 112 -23 172 c-13 95 -32 232 -42 303 -10 72 -31 218 -45 325 -14 107 -32 240 -40 295 -8 55 -23 170 -35 255 -12 85 -30 218 -41 295 -20 149 -47 345 -80 590 -25 183 -52 382 -79 575 -21 153 -64 468 -75 560 -12 93 -12 93 -88 33z"/>
 </g>

</svg>